<?xml version="1.0" encoding="utf-8"?>
<!-- Generator: $$$/GeneralStr/196=Adobe Illustrator 27.6.0, SVG Export Plug-In . SVG Version: 6.00 Build 0)  -->
<svg version="1.1" id="Ebene_1" xmlns="http://www.w3.org/2000/svg" xmlns:xlink="http://www.w3.org/1999/xlink" x="0px" y="0px"
	 viewBox="0 0 21.6 21.3" style="enable-background:new 0 0 21.6 21.3;" xml:space="preserve">
<style type="text/css">
	.st0{fill-rule:evenodd;clip-rule:evenodd;fill:#83AB00;}
</style>
<path id="icon_street" class="st0" d="M10.8,3.8C7.6,3.7,5,6.3,5,9.6c0,0.3,0,0.6,0.1,1c0.4,2.1,4.4,7,5.8,7c1.3,0,5.3-4.6,5.8-7.1
	C17.3,7.1,14.3,3.8,10.8,3.8 M10.5,7.3c1.3-0.2,2.5,0.7,2.7,2.1c0.2,1.3-0.8,2.5-2.1,2.6c-1.3,0.2-2.5-0.7-2.7-2
	C8.3,8.7,9.2,7.5,10.5,7.3C10.5,7.3,10.5,7.3,10.5,7.3 M7,0h7.6c3.9,0,7,3.1,7,6.9v7.4c0,3.9-3.2,7-7,7H7c-3.9,0-7-3.1-7-7V6.9
	C0,3.1,3.2,0,7,0"/>
</svg>
