<?xml version="1.0" encoding="utf-8"?>
<!-- Generator: $$$/GeneralStr/196=Adobe Illustrator 27.6.0, SVG Export Plug-In . SVG Version: 6.00 Build 0)  -->
<svg version="1.1" id="Ebene_1" xmlns="http://www.w3.org/2000/svg" xmlns:xlink="http://www.w3.org/1999/xlink" x="0px" y="0px"
	 viewBox="0 0 21.7 21.3" style="enable-background:new 0 0 21.7 21.3;" xml:space="preserve">
<style type="text/css">
	.st0{fill-rule:evenodd;clip-rule:evenodd;fill:#83AB00;}
</style>
<path id="icon_phone" class="st0" d="M6.6,12.4c1.7,2.1,5.7,5.4,8.7,4.3c1.2-0.3,2-1.5,1.9-2.7l-3-1.7c-0.8,0.4-1.1,1.1-1.8,1.6
	c-1.6-0.3-4.6-3.2-4.9-4.8c0.4-0.7,1.1-1,1.6-1.6c-0.3-1-0.8-2-1.4-2.9C7.1,4.3,6.5,4.3,6,4.6C4.9,5.2,4.3,6.5,4.5,7.7
	C4.7,9.5,5.5,11.1,6.6,12.4 M7,0h7.6c3.9,0,7,3.1,7.1,7v7.4c0,3.9-3.2,7-7.1,6.9H7c-3.9,0-7-3.1-7-6.9V7C0,3.1,3.2,0,7,0"/>
</svg>
