<?xml version="1.0" encoding="utf-8"?>
<!-- Generator: $$$/GeneralStr/196=Adobe Illustrator 27.6.0, SVG Export Plug-In . SVG Version: 6.00 Build 0)  -->
<svg version="1.1" id="Ebene_1" xmlns="http://www.w3.org/2000/svg" xmlns:xlink="http://www.w3.org/1999/xlink" x="0px" y="0px"
	 viewBox="0 0 21.6 21.3" style="enable-background:new 0 0 21.6 21.3;" xml:space="preserve">
<style type="text/css">
	.st0{fill-rule:evenodd;clip-rule:evenodd;fill:#83AB00;}
</style>
<path id="icon_mail" class="st0" d="M14,11.1c-3.5,2.3-2.8,2.6-7.8-1L4.8,9.1c0,1.3,0,2.5,0,3.8c0,1.3-0.3,2.5,1.3,2.5h9.5
	c1.6,0,1.4-1.2,1.4-2.5c0-1.3,0-2.6,0-3.9L14,11.1z M14.4,6c-1.2,0-8.5-0.1-9,0.1c-0.8,0.3-0.9,1.2-0.3,2c1.1,1.1,2.4,2.1,3.8,2.9
	c2,1.3,1.9,1.3,4-0.2c1.1-0.8,3.3-2.1,3.7-3c0.3-0.5,0.3-1.2-0.2-1.6C16,5.9,15.1,6,14.4,6 M7,0h7.6c3.9,0,7,3.1,7.1,7v7.4
	c0,3.9-3.2,7-7.1,7H7c-3.9,0-7-3.1-7-7V7C0,3.1,3.2,0,7,0"/>
</svg>
