<svg xmlns="http://www.w3.org/2000/svg" viewBox="0 0 272.95 51.02"><g id="ba75b892-bc65-4869-8f44-b89b108d4740" data-name="Ebene 2"><g id="f9d967f7-80ac-4025-a899-8fe504b2c701" data-name="Logos"><g><g><path d="M18.73,51a11.2,11.2,0,0,1-11.15-10l-.09-.68V38.88a11.87,11.87,0,0,1-6.27-5.7A12,12,0,0,1,2.23,21C6.5,14.2,11.74,6,12.36,5.05a11.2,11.2,0,0,1,20.51,5l.08.65V12a11.69,11.69,0,0,1,5.28,18c-3,4.88-8.28,13.31-9.2,14.8C25.86,49.94,21.68,51,18.73,51ZM21.75.4a10.81,10.81,0,0,0-9.07,4.88c-.61.89-5.84,9.14-10.12,15.9A11.62,11.62,0,0,0,1.58,33a11.41,11.41,0,0,0,6.17,5.54l.13.05v1.76L8,41a10.82,10.82,0,0,0,10.76,9.61c2.85,0,6.89-1.05,10-6.05.92-1.49,6.17-9.92,9.21-14.81a11.29,11.29,0,0,0-5.21-17.41l-.13,0V10.75l-.08-.63A10.8,10.8,0,0,0,21.75.4Z" style="fill: #84bc26;opacity: 0.02"/><path d="M18.73,49.64A9.85,9.85,0,0,1,9,40.89l-.07-.59V37.88a10.41,10.41,0,0,1-6.41-5.31,10.67,10.67,0,0,1,.93-10.85c3.5-5.53,9.47-15,10.11-15.88a9.82,9.82,0,0,1,18,4.4l.06.56V13a10.3,10.3,0,0,1,5.51,16.17L27.85,44.06C25,48.67,21.33,49.64,18.73,49.64Zm3-47.86a9.47,9.47,0,0,0-7.93,4.29c-.63.91-6.6,10.34-10.1,15.87a10.24,10.24,0,0,0-.9,10.45,10,10,0,0,0,6.3,5.15l.15,0v2.69l.08.57a9.44,9.44,0,0,0,9.38,8.4c2.49,0,6.05-.93,8.78-5.39,1-1.57,6.78-10.91,9.24-14.86a9.91,9.91,0,0,0-5.43-15.61l-.15,0V10.83l-.07-.54A9.43,9.43,0,0,0,21.75,1.78Z" style="fill: #84bc26;opacity: 0.05"/><path d="M18.73,48.25a8.46,8.46,0,0,1-8.4-7.54l-.07-.5V36.78A9,9,0,0,1,3.71,32a9.24,9.24,0,0,1,.84-9.46C7.36,18,14,7.57,14.64,6.63a8.44,8.44,0,0,1,15.48,3.78l.06.48v3.25a8.94,8.94,0,0,1,5.74,14.3L26.67,43.33C24.17,47.4,21,48.25,18.73,48.25Zm3-45.08A8.11,8.11,0,0,0,15,6.86c-.64.93-7.27,11.39-10.08,15.84a8.88,8.88,0,0,0-.82,9.07,8.63,8.63,0,0,0,6.43,4.65l.17,0v3.73l.06.48a8.07,8.07,0,0,0,8,7.19c2.14,0,5.2-.82,7.6-4.72,1-1.58,6.8-11,9.27-14.91A8.56,8.56,0,0,0,30,14.5l-.17,0V10.91l-.05-.45A8.07,8.07,0,0,0,21.75,3.17Z" style="fill: #84bc26;opacity: 0.1"/><path d="M18.73,46.86a7.1,7.1,0,0,1-7-6.32l0-.42V35.56A7.73,7.73,0,0,1,5,31.33a7.92,7.92,0,0,1,.75-8.08C8.52,18.8,15.14,8.34,15.78,7.43a7,7,0,0,1,13,3.15l.05.39v4.39a7.84,7.84,0,0,1,6.91,4.45,7.7,7.7,0,0,1-.93,7.86c-2.46,4-8.32,13.37-9.28,14.94C23.33,46.12,20.62,46.86,18.73,46.86Zm3-42.3A6.75,6.75,0,0,0,16.1,7.65C15.47,8.56,8.85,19,6,23.47a7.54,7.54,0,0,0-.73,7.68,7.38,7.38,0,0,0,6.56,4H12v4.91l.06.39a6.7,6.7,0,0,0,6.63,6c1.79,0,4.35-.7,6.42-4.06l9.3-15A7.32,7.32,0,0,0,35.34,20a7.46,7.46,0,0,0-6.76-4.23H28.4V11l0-.37A6.69,6.69,0,0,0,21.75,4.56Z" style="fill: #84bc26;opacity: 0.2"/><path d="M34.45,20.39c-.64-1.37-2.32-3.67-6.5-3.67h-.54V11.07l0-.32A5.67,5.67,0,0,0,16.91,8.22c-.63.91-7.86,12.32-10,15.79a6.67,6.67,0,0,0-.67,6.7,6.48,6.48,0,0,0,6.18,3.49H13V40l.05.34a5.72,5.72,0,0,0,5.65,5.12c2.23,0,4.11-1.21,5.58-3.6,1.14-1.85,8.93-14.37,9.32-15A6.35,6.35,0,0,0,34.45,20.39Zm-1.13,6.26h0c-.08.13-8.16,13.1-9.33,15-1.39,2.27-3.15,3.41-5.24,3.41a5.33,5.33,0,0,1-5.26-4.77l0-.32V33.8H12.37a6.11,6.11,0,0,1-5.83-3.26,6.3,6.3,0,0,1,.64-6.3v0c1.56-2.47,9.39-14.83,10-15.78a5.4,5.4,0,0,1,4.51-2.5A5.33,5.33,0,0,1,27,10.79l0,.3v6H28c4,0,5.54,2.16,6.14,3.45A6,6,0,0,1,33.32,26.65Z" style="fill: #84bc26;opacity: 0.4"/><path d="M33.19,21c-.6-1.31-2-2.87-5.24-2.87H26v-7l0-.24a4.36,4.36,0,0,0-4.25-4A4.43,4.43,0,0,0,18.05,9c-.42.6-4.07,6.35-10,15.77l0,0a5.28,5.28,0,0,0-.57,5.3,5.15,5.15,0,0,0,4.94,2.71h2.05v7.12l0,.25a4.34,4.34,0,0,0,4.28,3.91c1.75,0,3.19-1,4.4-2.93.69-1.12,3.74-6,9.33-15l.06-.09A5,5,0,0,0,33.19,21Zm-1,4.86-.07.1c-5.6,9-8.65,13.91-9.33,15-1.14,1.85-2.47,2.75-4.07,2.75a4,4,0,0,1-3.89-3.57l0-.23V32.42H12.37a4.77,4.77,0,0,1-4.59-2.5A4.88,4.88,0,0,1,8.32,25l0,0c6-9.43,9.61-15.17,10-15.76a4,4,0,0,1,3.38-1.9A3.94,3.94,0,0,1,25.6,11l0,.22V18.5H28c3,0,4.33,1.43,4.88,2.64A4.59,4.59,0,0,1,32.2,25.83Z" style="fill: #84bc26;opacity: 0.7000000000000001"/><path d="M31.93,21.55c-.63-1.37-2-2.06-4-2.06H24.64V11.23l0-.15a3,3,0,0,0-2.87-2.76,3.09,3.09,0,0,0-2.56,1.47c-.41.58-4.06,6.32-10,15.74l0,.06a3.94,3.94,0,0,0-.46,3.89,3.8,3.8,0,0,0,3.7,1.95H15.8v8.41l0,.16a3,3,0,0,0,2.91,2.71c.78,0,2-.24,3.22-2.28.72-1.17,4.13-6.65,9.34-15l.12-.16A3.64,3.64,0,0,0,31.93,21.55ZM31.09,25l-.13.19c-5.13,8.24-8.62,13.86-9.34,15-1.16,1.88-2.2,2.09-2.89,2.09A2.6,2.6,0,0,1,16.21,40V31H12.37A3.45,3.45,0,0,1,9,29.31a3.52,3.52,0,0,1,.44-3.49l0-.07c6-9.42,9.61-15.16,10-15.73a2.7,2.7,0,0,1,2.24-1.31,2.6,2.6,0,0,1,2.48,2.42v8.75H28c1.84,0,3.06.62,3.62,1.83A3.23,3.23,0,0,1,31.09,25Z" style="fill: #84bc26;opacity: 0.9"/><path d="M30.46,22.22C30.33,22,29.94,21.1,28,21.1H23V11.28a1.4,1.4,0,0,0-1.27-1.35,1.54,1.54,0,0,0-1.24.78c-.38.56-4,6.29-10,15.72l0,.08a2.35,2.35,0,0,0-.35,2.25c.16.32.69,1,2.26,1h5.05v10a1.39,1.39,0,0,0,1.31,1.29c.25,0,.92,0,1.85-1.51.7-1.14,9.53-15.31,9.53-15.31A2,2,0,0,0,30.46,22.22Zm-1.31,1.34L19.56,39c-.46.76-.71.94-.81.94s-.14,0-.14-.25v-11H12.37c-.79,0-1.12-.24-1.19-.39-.15-.31.1-.81.26-1l.08-.12c5.87-9.28,9.6-15.14,10-15.68.11-.14.18-.26.24-.25s.1.11.1.27V22.3H28c.46,0,1.26.06,1.43.43A.94.94,0,0,1,29.15,23.56Z" style="fill: #84bc26"/></g><g><path d="M53.06,13.28v9.33H63.59V13.28h5.77V37.74H63.59V27.54H53.06v10.2H47.29V13.28Z" style="fill: #312783"/><path d="M75.7,31.75a14.75,14.75,0,0,0,6.83,1.75c2.65,0,4.06-1,4.06-2.62,0-1.41-1.19-2.32-4.43-3.26-4.31-1.24-7.44-3.34-7.44-7.37,0-4.25,3.82-7.4,9.77-7.4a16.48,16.48,0,0,1,7,1.34l-1.38,4.57a13.85,13.85,0,0,0-5.77-1.27c-2.54,0-3.74,1.05-3.74,2.32,0,1.56,1.56,2.22,4.94,3.31,4.68,1.48,7,3.66,7,7.44s-3.08,7.62-10.48,7.62a17.32,17.32,0,0,1-7.63-1.71Z" style="fill: #312783"/><path d="M106.8,26.49v3.78H96.53V26.49Z" style="fill: #312783"/><path d="M127.2,27.54H117.07v5.52h11.32v4.68H111.3V13.28h16.51V18H117.07v4.9H127.2Z" style="fill: #312783"/><path d="M133.25,13.28H139V32.92h10.89v4.82H133.25Z" style="fill: #312783"/><path d="M170.19,27.54H160.07v5.52h11.32v4.68H154.3V13.28h16.51V18H160.07v4.9h10.12Z" style="fill: #312783"/><path d="M176.25,13.28H182V24h.07c.59-.87,1.24-1.7,1.86-2.5l6.31-8.24h7.29l-9,10.34,9.51,14.12h-6.82l-6.86-10.67L182,29.79v8h-5.73Z" style="fill: #312783"/><path d="M207.05,18h-7.36V13.28H220.3V18h-7.48V37.74h-5.77Z" style="fill: #312783"/><path d="M224.25,13.61a55.78,55.78,0,0,1,8.1-.55c4,0,6.57.62,8.38,2a6.22,6.22,0,0,1,2.36,5.16,6.46,6.46,0,0,1-4.5,6v.15c1.71.69,2.69,2.32,3.37,4.43.84,2.79,1.6,6,2.11,7h-5.92a29.48,29.48,0,0,1-1.81-5.66c-.76-3-1.89-3.85-4.39-3.88h-2v9.54h-5.74ZM230,24.1h2.61c3,0,4.75-1.31,4.75-3.45s-1.77-3.34-4.42-3.34a18.25,18.25,0,0,0-2.94.18Z" style="fill: #312783"/><path d="M259.6,38.18c-7.84,0-12.78-5.37-12.78-12.41,0-7.52,5.37-12.92,13.18-12.92,8.05,0,12.95,5.33,12.95,12.48,0,7.62-5.37,12.85-13.32,12.85Zm.29-4.5c4.31,0,6.93-3.49,6.93-8.17,0-4.43-2.58-8.16-6.93-8.16S253,21,253,25.58s2.69,8.1,6.9,8.1Z" style="fill: #312783"/></g></g></g></g></svg>