<svg xmlns="http://www.w3.org/2000/svg" xmlns:xlink="http://www.w3.org/1999/xlink" width="291.465" height="56.693" viewBox="0 0 291.465 56.693"><defs><clipPath id="clip-path"><rect id="Rechteck_10" data-name="Rechteck 10" width="291.465" height="56.693" transform="translate(0 0)" fill="none"/></clipPath><clipPath id="clip-path-2"><rect id="Rechteck_2" data-name="Rechteck 2" width="40.548" height="51.024" transform="translate(5.256 2.835)" fill="none"/></clipPath><clipPath id="clip-path-3"><rect id="Rechteck_3" data-name="Rechteck 3" width="37.77" height="48.248" transform="translate(6.646 4.223)" fill="none"/></clipPath><clipPath id="clip-path-4"><rect id="Rechteck_4" data-name="Rechteck 4" width="34.992" height="45.473" transform="translate(8.035 5.61)" fill="none"/></clipPath><clipPath id="clip-path-5"><rect id="Rechteck_5" data-name="Rechteck 5" width="32.214" height="42.697" transform="translate(9.424 6.998)" fill="none"/></clipPath><clipPath id="clip-path-6"><rect id="Rechteck_6" data-name="Rechteck 6" width="29.448" height="39.929" transform="translate(10.805 8.382)" fill="none"/></clipPath><clipPath id="clip-path-7"><rect id="Rechteck_7" data-name="Rechteck 7" width="26.676" height="37.163" transform="translate(12.192 9.766)" fill="none"/></clipPath><clipPath id="clip-path-8"><rect id="Rechteck_8" data-name="Rechteck 8" width="23.901" height="34.393" transform="translate(13.579 11.15)" fill="none"/></clipPath></defs><g id="HS-Elektro-Logo" transform="translate(0 0)"><g id="Gruppe_22" data-name="Gruppe 22" clip-path="url(#clip-path)"><g id="Gruppe_3" data-name="Gruppe 3" opacity="0.02"><g id="Gruppe_2" data-name="Gruppe 2"><g id="Gruppe_1" data-name="Gruppe 1" clip-path="url(#clip-path-2)"><path id="Pfad_1" data-name="Pfad 1" d="M23.983,53.858a11.213,11.213,0,0,1-11.15-9.952l-.089-.685V41.71a11.86,11.86,0,0,1-6.266-5.692,12.016,12.016,0,0,1,1-12.221c4.277-6.762,9.509-15.017,10.13-15.911A11.209,11.209,0,0,1,38.13,12.908l.078.648,0,1.312a11.682,11.682,0,0,1,5.279,17.953c-3.038,4.882-8.284,13.312-9.2,14.8-3.169,5.153-7.353,6.235-10.3,6.235M27,3.231a10.814,10.814,0,0,0-9.067,4.881c-.617.889-5.846,9.138-10.125,15.9a11.625,11.625,0,0,0-.981,11.827,11.451,11.451,0,0,0,6.178,5.547l.129.048v1.759l.087.66a10.821,10.821,0,0,0,10.757,9.607c2.851,0,6.894-1.05,9.967-6.047.918-1.491,6.164-9.921,9.209-14.814a11.287,11.287,0,0,0-5.215-17.408l-.131-.048V13.579l-.076-.623A10.806,10.806,0,0,0,27,3.231" fill="#80af12"/></g></g></g><g id="Gruppe_6" data-name="Gruppe 6" opacity="0.05"><g id="Gruppe_5" data-name="Gruppe 5"><g id="Gruppe_4" data-name="Gruppe 4" clip-path="url(#clip-path-3)"><path id="Pfad_2" data-name="Pfad 2" d="M23.983,52.47a9.838,9.838,0,0,1-9.774-8.743l-.077-.6,0-2.416A10.411,10.411,0,0,1,7.719,35.4a10.645,10.645,0,0,1,.923-10.842c3.5-5.532,9.471-14.961,10.11-15.881a9.822,9.822,0,0,1,18,4.4l.069.563,0,2.232a10.306,10.306,0,0,1,5.511,16.178c-2.447,3.933-8.261,13.277-9.228,14.846-2.833,4.608-6.525,5.575-9.123,5.575M27,4.619A9.461,9.461,0,0,0,19.078,8.9c-.635.914-6.6,10.337-10.1,15.873a10.255,10.255,0,0,0-.9,10.447,10.01,10.01,0,0,0,6.306,5.15l.146.041v2.692l.076.57a9.446,9.446,0,0,0,9.381,8.4c2.5,0,6.048-.933,8.786-5.385.966-1.571,6.781-10.915,9.236-14.859a9.91,9.91,0,0,0-5.433-15.614l-.146-.04V13.663l-.067-.54A9.432,9.432,0,0,0,27,4.619" fill="#80af12"/></g></g></g><g id="Gruppe_9" data-name="Gruppe 9" opacity="0.1"><g id="Gruppe_8" data-name="Gruppe 8"><g id="Gruppe_7" data-name="Gruppe 7" clip-path="url(#clip-path-4)"><path id="Pfad_3" data-name="Pfad 3" d="M23.983,51.083a8.464,8.464,0,0,1-8.4-7.534l-.066-.508,0-3.424a9.02,9.02,0,0,1-6.555-4.834A9.276,9.276,0,0,1,9.8,25.32C12.616,20.87,19.243,10.4,19.892,9.468a8.436,8.436,0,0,1,15.484,3.776l.058.479v3.251a8.943,8.943,0,0,1,5.746,14.3C38.727,35.22,32.9,44.591,31.925,46.168c-2.5,4.062-5.7,4.915-7.942,4.915M27,6.007a8.1,8.1,0,0,0-6.787,3.688c-.645.928-7.268,11.389-10.086,15.843a8.887,8.887,0,0,0-.815,9.068,8.635,8.635,0,0,0,6.431,4.649l.165.027v3.734l.065.481a8.071,8.071,0,0,0,8.005,7.189c2.143,0,5.2-.82,7.6-4.726.971-1.578,6.8-10.948,9.264-14.9a8.554,8.554,0,0,0-5.647-13.72l-.166-.027V13.747l-.057-.455A8.06,8.06,0,0,0,27,6.007" fill="#80af12"/></g></g></g><g id="Gruppe_12" data-name="Gruppe 12" opacity="0.2"><g id="Gruppe_11" data-name="Gruppe 11"><g id="Gruppe_10" data-name="Gruppe 10" clip-path="url(#clip-path-5)"><path id="Pfad_4" data-name="Pfad 4" d="M23.983,49.695a7.089,7.089,0,0,1-7.022-6.324l-.055-.419,0-4.56a7.738,7.738,0,0,1-6.7-4.227,7.906,7.906,0,0,1,.756-8.08c2.814-4.449,9.437-14.91,10.071-15.824A7.049,7.049,0,0,1,34,13.413l.048.394,0,4.392a7.821,7.821,0,0,1,6.909,4.45A7.7,7.7,0,0,1,40.03,30.5c-2.465,3.96-8.321,13.37-9.286,14.94-2.163,3.516-4.87,4.253-6.761,4.253M27,7.395a6.747,6.747,0,0,0-5.648,3.092c-.63.908-7.25,11.363-10.066,15.816a7.516,7.516,0,0,0-.732,7.685,7.376,7.376,0,0,0,6.553,4.019l.188.008v4.912l.053.392a6.7,6.7,0,0,0,6.63,5.98c1.79,0,4.357-.7,6.423-4.064.967-1.572,6.823-10.983,9.3-14.956a7.319,7.319,0,0,0,.9-7.464,7.466,7.466,0,0,0-6.758-4.232l-.187-.01V13.832l-.047-.371A6.69,6.69,0,0,0,27,7.395" fill="#80af12"/></g></g></g><g id="Gruppe_15" data-name="Gruppe 15" opacity="0.4"><g id="Gruppe_14" data-name="Gruppe 14"><g id="Gruppe_13" data-name="Gruppe 13" clip-path="url(#clip-path-6)"><path id="Pfad_5" data-name="Pfad 5" d="M39.7,23.227c-.632-1.372-2.315-3.674-6.5-3.674h-.541V13.9l-.039-.323a5.714,5.714,0,0,0-5.62-5.2,5.788,5.788,0,0,0-4.838,2.668c-.633.913-7.858,12.328-10.053,15.8a6.672,6.672,0,0,0-.672,6.7,6.49,6.49,0,0,0,6.18,3.483h.665V42.85l.045.343a5.72,5.72,0,0,0,5.65,5.118c2.237,0,4.115-1.209,5.583-3.6,1.141-1.853,8.931-14.369,9.323-15a6.34,6.34,0,0,0,.813-6.49m-1.13,6.255-.01.013-.008.014c-.081.129-8.154,13.1-9.324,15-1.391,2.262-3.156,3.408-5.247,3.408a5.331,5.331,0,0,1-5.259-4.775l-.041-.317V36.636h-1.06A6.1,6.1,0,0,1,11.8,33.372a6.281,6.281,0,0,1,.642-6.3l.01-.014c1.562-2.47,9.386-14.837,10.043-15.785a5.4,5.4,0,0,1,4.514-2.5,5.323,5.323,0,0,1,5.228,4.851l.036.3v6.021h.936c3.961,0,5.545,2.159,6.137,3.445a5.952,5.952,0,0,1-.771,6.09" fill="#80af12"/></g></g></g><g id="Gruppe_18" data-name="Gruppe 18" opacity="0.7"><g id="Gruppe_17" data-name="Gruppe 17"><g id="Gruppe_16" data-name="Gruppe 16" clip-path="url(#clip-path-7)"><path id="Pfad_6" data-name="Pfad 6" d="M38.444,23.806c-.6-1.309-2-2.869-5.238-2.869H31.281V13.987l-.029-.239A4.348,4.348,0,0,0,27,9.766a4.436,4.436,0,0,0-3.7,2.073c-.415.6-4.072,6.346-10.033,15.767l-.02.031a5.3,5.3,0,0,0-.57,5.3,5.149,5.149,0,0,0,4.941,2.715h2.049v7.113l.033.255a4.351,4.351,0,0,0,4.278,3.913c1.748,0,3.189-.961,4.405-2.937.688-1.118,3.74-6.028,9.326-15.006l.06-.087a4.978,4.978,0,0,0,.67-5.093m-.987,4.857-.069.1c-5.6,9-8.651,13.908-9.336,15.021-1.138,1.85-2.469,2.749-4.069,2.749A3.962,3.962,0,0,1,20.1,42.965l-.03-.23V35.253H17.623a4.768,4.768,0,0,1-4.588-2.5,4.915,4.915,0,0,1,.541-4.9l.026-.038c5.962-9.424,9.615-15.166,10.027-15.76A4.055,4.055,0,0,1,27,10.16,3.958,3.958,0,0,1,30.86,13.8l.026.215v7.322l2.32,0c3.03,0,4.326,1.436,4.88,2.64a4.59,4.59,0,0,1-.629,4.692" fill="#80af12"/></g></g></g><g id="Gruppe_21" data-name="Gruppe 21" opacity="0.9"><g id="Gruppe_20" data-name="Gruppe 20"><g id="Gruppe_19" data-name="Gruppe 19" clip-path="url(#clip-path-8)"><path id="Pfad_7" data-name="Pfad 7" d="M37.187,24.384c-.63-1.369-1.969-2.063-3.979-2.063l-3.312,0V14.064l-.018-.149a2.979,2.979,0,0,0-2.871-2.765,3.089,3.089,0,0,0-2.563,1.477c-.4.581-4.054,6.32-10.015,15.742l-.038.056a3.934,3.934,0,0,0-.468,3.89,3.809,3.809,0,0,0,3.7,1.947h3.434v8.415l.021.16a2.981,2.981,0,0,0,2.9,2.706c.783,0,1.969-.236,3.224-2.277.72-1.169,4.126-6.648,9.342-15.029l.113-.165a3.619,3.619,0,0,0,.524-3.688m-.841,3.452-.131.192C31.09,36.262,27.6,41.88,26.872,43.059c-1.152,1.873-2.2,2.09-2.888,2.09a2.592,2.592,0,0,1-2.514-2.363l-.018-.135V33.868H17.623a3.431,3.431,0,0,1-3.347-1.728,3.541,3.541,0,0,1,.438-3.49l.042-.062c5.965-9.427,9.612-15.16,10.012-15.736a2.7,2.7,0,0,1,2.238-1.307,2.592,2.592,0,0,1,2.48,2.418l.015.125v8.63l3.706,0c1.842,0,3.06.617,3.62,1.833a3.226,3.226,0,0,1-.482,3.287" fill="#80af12"/></g></g></g><path id="Pfad_8" data-name="Pfad 8" d="M35.719,25.059c-.128-.277-.518-1.122-2.511-1.122l-4.928,0V14.169l-.007-.057a1.393,1.393,0,0,0-1.267-1.346,1.526,1.526,0,0,0-1.235.782c-.388.56-4.032,6.288-10,15.719l-.053.08a2.34,2.34,0,0,0-.349,2.249c.157.316.691,1.051,2.254,1.051h5.05v9.918l.008.065a1.385,1.385,0,0,0,1.3,1.3c.251,0,.92,0,1.848-1.508.7-1.144,9.534-15.312,9.534-15.312a2.033,2.033,0,0,0,.353-2.048M34.411,26.4s-8.9,14.266-9.593,15.4c-.465.756-.716.942-.813.942-.042,0-.141-.037-.141-.25V31.456H17.623c-.784,0-1.115-.245-1.187-.389-.153-.308.1-.815.26-1.04l.082-.124c5.871-9.278,9.6-15.138,9.972-15.676.1-.147.179-.262.238-.252s.1.109.1.268V25.132l6.12,0c.459,0,1.255.056,1.428.43a.923.923,0,0,1-.226.838" fill="#80af12"/><path id="Pfad_9" data-name="Pfad 9" d="M58.32,16.116v9.326H68.846V16.116h5.77V40.577h-5.77v-10.2H58.32v10.2H52.549V16.116Z" fill="#fff"/><path id="Pfad_10" data-name="Pfad 10" d="M80.961,34.588a14.81,14.81,0,0,0,6.823,1.742c2.65,0,4.066-1.016,4.066-2.614,0-1.414-1.2-2.322-4.429-3.265-4.318-1.235-7.44-3.34-7.44-7.367,0-4.247,3.811-7.4,9.763-7.4a16.393,16.393,0,0,1,7.04,1.343L95.406,21.6a13.811,13.811,0,0,0-5.771-1.27c-2.54,0-3.738,1.052-3.738,2.322,0,1.561,1.561,2.213,4.936,3.3,4.681,1.488,6.968,3.666,6.968,7.439,0,3.919-3.084,7.622-10.488,7.622a17.269,17.269,0,0,1-7.622-1.706Z" fill="#fff"/><rect id="Rechteck_9" data-name="Rechteck 9" width="10.271" height="3.774" transform="translate(101.787 29.326)" fill="#fff"/><path id="Pfad_11" data-name="Pfad 11" d="M132.453,30.379H122.326V35.9h11.325v4.681h-17.1V16.117H133.07V20.8H122.326v4.9h10.127Z" fill="#fff"/><path id="Pfad_12" data-name="Pfad 12" d="M138.507,16.116h5.771V35.75h10.889v4.827h-16.66Z" fill="#fff"/><path id="Pfad_13" data-name="Pfad 13" d="M175.449,30.379H165.322V35.9h11.325v4.681h-17.1V16.117h16.515V20.8H165.322v4.9h10.127Z" fill="#fff"/><path id="Pfad_14" data-name="Pfad 14" d="M181.5,16.116h5.735V26.858h.073c.581-.872,1.233-1.706,1.851-2.5l6.315-8.237h7.294l-8.963,10.343,9.509,14.118h-6.825l-6.858-10.67-2.4,2.722v7.948H181.5Z" fill="#fff"/><path id="Pfad_15" data-name="Pfad 15" d="M212.31,20.833h-7.367V16.117h20.614v4.716h-7.476V40.576H212.31Z" fill="#fff"/><path id="Pfad_16" data-name="Pfad 16" d="M229.509,16.442A55.827,55.827,0,0,1,237.6,15.9c3.956,0,6.57.617,8.384,1.96a6.2,6.2,0,0,1,2.36,5.154,6.472,6.472,0,0,1-4.5,5.987v.145c1.706.691,2.686,2.323,3.375,4.429.834,2.794,1.6,6.024,2.105,7H243.41a29.5,29.5,0,0,1-1.814-5.663c-.762-3.047-1.887-3.846-4.392-3.881h-1.96v9.544h-5.735Zm5.735,10.489h2.613c2.977,0,4.754-1.308,4.754-3.448,0-2.287-1.777-3.34-4.428-3.34a17.859,17.859,0,0,0-2.939.183Z" fill="#fff"/><path id="Pfad_17" data-name="Pfad 17" d="M264.853,41.012c-7.84,0-12.777-5.372-12.777-12.413,0-7.512,5.372-12.919,13.175-12.919,8.059,0,12.957,5.335,12.957,12.484,0,7.622-5.372,12.848-13.32,12.848Zm.29-4.5c4.318,0,6.931-3.485,6.931-8.166,0-4.428-2.575-8.166-6.931-8.166s-6.933,3.666-6.933,8.239c0,4.535,2.686,8.093,6.9,8.093Z" fill="#fff"/></g></g></svg>