<svg xmlns="http://www.w3.org/2000/svg" xmlns:xlink="http://www.w3.org/1999/xlink" width="89.228" height="112.279" viewBox="0 0 89.228 112.279"><defs><clipPath id="clip-path"><rect id="Rechteck_2" data-name="Rechteck 2" width="89.228" height="112.279" fill="none"/></clipPath><clipPath id="clip-path-2"><rect id="Rechteck_3" data-name="Rechteck 3" width="83.115" height="106.171" fill="none"/></clipPath><clipPath id="clip-path-3"><rect id="Rechteck_4" data-name="Rechteck 4" width="77.002" height="100.065" fill="none"/></clipPath><clipPath id="clip-path-4"><rect id="Rechteck_5" data-name="Rechteck 5" width="70.889" height="93.956" fill="none"/></clipPath><clipPath id="clip-path-5"><rect id="Rechteck_6" data-name="Rechteck 6" width="64.801" height="87.866" fill="none"/></clipPath><clipPath id="clip-path-6"><rect id="Rechteck_7" data-name="Rechteck 7" width="58.7" height="81.778" fill="none"/></clipPath><clipPath id="clip-path-7"><rect id="Rechteck_8" data-name="Rechteck 8" width="52.595" height="75.683" fill="none"/></clipPath></defs><g id="Logoicon" transform="translate(747.744 260.512)"><g id="Gruppe_3" data-name="Gruppe 3" transform="translate(-747.744 -260.512)" opacity="0.02"><g id="Gruppe_2" data-name="Gruppe 2" transform="translate(0 0)"><g id="Gruppe_1" data-name="Gruppe 1" clip-path="url(#clip-path)"><path id="Pfad_1" data-name="Pfad 1" d="M46.465,115.114a24.674,24.674,0,0,1-24.536-21.9l-.2-1.507,0-3.325A26.1,26.1,0,0,1,7.943,75.856c-4.247-8.545-3.422-18.6,2.212-26.893,9.412-14.88,20.925-33.045,22.291-35.013A24.655,24.655,0,0,1,53.115,2.834C65.733,2.834,76.027,12.158,77.6,25l.172,1.426,0,2.887A25.707,25.707,0,0,1,89.389,68.821C82.7,79.564,71.16,98.115,69.142,101.394c-6.973,11.339-16.181,13.72-22.676,13.72M53.115,3.708A23.8,23.8,0,0,0,33.163,14.448C31.805,16.4,20.3,34.557,10.883,49.441,5.421,57.482,4.618,67.208,8.724,75.467A25.2,25.2,0,0,0,22.319,87.673l.284.106V91.65l.191,1.452a23.811,23.811,0,0,0,23.671,21.141c6.274,0,15.17-2.311,21.933-13.307,2.02-3.281,13.564-21.831,20.265-32.6A24.837,24.837,0,0,0,77.187,30.03l-.288-.106V26.479l-.167-1.371c-1.514-12.4-11.447-21.4-23.616-21.4" transform="translate(-5.257 -2.835)" fill="#80af12"/></g></g></g><g id="Gruppe_6" data-name="Gruppe 6" transform="translate(-744.687 -257.457)" opacity="0.05"><g id="Gruppe_5" data-name="Gruppe 5" transform="translate(0 0)"><g id="Gruppe_4" data-name="Gruppe 4" clip-path="url(#clip-path-2)"><path id="Pfad_2" data-name="Pfad 2" d="M44.8,110.393A21.649,21.649,0,0,1,23.29,91.154l-.169-1.312,0-5.316A22.91,22.91,0,0,1,9.008,72.83c-3.759-7.561-3-16.48,2.031-23.858C18.739,36.8,31.881,16.05,33.287,14.025a21.67,21.67,0,0,1,18.161-9.8c11.051,0,20.071,8.193,21.449,19.484l.152,1.239,0,4.912a22.678,22.678,0,0,1,12.127,35.6C79.8,74.111,67,94.673,64.873,98.125c-6.234,10.14-14.358,12.268-20.075,12.268M51.448,5.1A20.82,20.82,0,0,0,34,14.523c-1.4,2.011-14.53,22.747-22.236,34.929C6.909,56.577,6.174,65.168,9.789,72.441A22.028,22.028,0,0,0,23.666,83.773l.321.09v5.924l.167,1.254A20.786,20.786,0,0,0,44.8,109.52c5.495,0,13.309-2.053,19.334-11.85,2.126-3.457,14.922-24.019,20.324-32.7A21.807,21.807,0,0,0,72.5,30.613l-.321-.088V25l-.147-1.188C70.709,12.967,62.052,5.1,51.448,5.1" transform="translate(-6.646 -4.223)" fill="#80af12"/></g></g></g><g id="Gruppe_9" data-name="Gruppe 9" transform="translate(-741.629 -254.404)" opacity="0.1"><g id="Gruppe_8" data-name="Gruppe 8" transform="translate(0 0)"><g id="Gruppe_7" data-name="Gruppe 7" clip-path="url(#clip-path-3)"><path id="Pfad_3" data-name="Pfad 3" d="M43.13,105.675A18.625,18.625,0,0,1,24.65,89.1L24.5,87.978l0-7.535A19.848,19.848,0,0,1,10.075,69.806C6.805,63.229,7.5,55.445,11.922,48.982,18.116,39.19,32.7,16.157,34.127,14.1A18.692,18.692,0,0,1,49.78,5.61c9.484,0,17.23,7.064,18.421,16.8l.128,1.054,0,7.154A19.679,19.679,0,0,1,80.974,62.091c-5.4,8.677-18.231,29.3-20.368,32.768-5.5,8.939-12.539,10.816-17.477,10.816M49.78,6.484A17.829,17.829,0,0,0,34.845,14.6C33.425,16.641,18.851,39.661,12.65,49.462,8.4,55.674,7.73,63.128,10.857,69.417a19,19,0,0,0,14.152,10.23l.363.059v8.217l.143,1.058A17.761,17.761,0,0,0,43.13,104.8c4.716,0,11.449-1.8,16.735-10.4C62,90.929,74.833,70.31,80.25,61.6A18.822,18.822,0,0,0,67.824,31.413l-.365-.059V23.516l-.125-1C66.2,13.224,58.817,6.484,49.78,6.484" transform="translate(-8.035 -5.61)" fill="#80af12"/></g></g></g><g id="Gruppe_12" data-name="Gruppe 12" transform="translate(-738.572 -251.35)" opacity="0.2"><g id="Gruppe_11" data-name="Gruppe 11" transform="translate(0 0)"><g id="Gruppe_10" data-name="Gruppe 10" clip-path="url(#clip-path-4)"><path id="Pfad_4" data-name="Pfad 4" d="M41.462,100.954A15.6,15.6,0,0,1,26.009,87.038l-.121-.922,0-10.034c-9.429-.616-13.445-6.69-14.744-9.3C8.361,61.193,8.986,54.545,12.8,49,19,39.209,33.57,16.19,34.966,14.178A15.707,15.707,0,0,1,48.112,7C56.031,7,62.5,12.935,63.5,21.114l.106.867,0,9.665c9.973.709,13.949,7.064,15.2,9.792a16.948,16.948,0,0,1-2.04,17.281C71.349,67.433,58.463,88.14,56.339,91.6c-4.76,7.737-10.717,9.359-14.878,9.359m6.65-93.083a14.847,14.847,0,0,0-12.429,6.8c-1.386,2-15.954,25-22.151,34.8-3.648,5.3-4.247,11.612-1.611,16.911,1.248,2.513,5.154,8.4,14.42,8.844l.414.018V86.061l.117.863a14.743,14.743,0,0,0,14.59,13.159c3.939,0,9.588-1.551,14.134-8.943C57.723,87.681,70.61,66.971,76.05,58.229A16.107,16.107,0,0,0,78.021,41.8c-1.206-2.623-5.07-8.778-14.871-9.313l-.411-.022V22.036l-.1-.816c-.944-7.733-7.053-13.348-14.524-13.348" transform="translate(-9.425 -6.998)" fill="#80af12"/></g></g></g><g id="Gruppe_15" data-name="Gruppe 15" transform="translate(-735.533 -248.304)" opacity="0.4"><g id="Gruppe_14" data-name="Gruppe 14" transform="translate(0 0)"><g id="Gruppe_13" data-name="Gruppe 13" clip-path="url(#clip-path-5)"><path id="Pfad_5" data-name="Pfad 5" d="M74.394,41.049C73,38.03,69.3,32.964,60.1,32.964h-1.19V20.531l-.086-.711c-.81-6.628-6.012-11.438-12.367-11.438a12.736,12.736,0,0,0-10.646,5.871c-1.393,2.009-17.292,27.128-22.122,34.764-1.2,1.734-4.87,7.926-1.479,14.744,1.146,2.3,4.764,7.664,13.6,7.664h1.463v12.8l.1.755A12.588,12.588,0,0,0,39.8,96.247c4.923,0,9.055-2.66,12.286-7.911C54.6,84.259,71.742,56.717,72.6,55.33a13.95,13.95,0,0,0,1.789-14.281M71.907,54.813l-.022.029-.018.031c-.178.284-17.943,28.827-20.518,33.008-3.061,4.978-6.945,7.5-11.546,7.5A11.73,11.73,0,0,1,28.231,84.873l-.09-.7V70.556H25.808c-8.349,0-11.749-5.022-12.82-7.183-3.18-6.39.279-12.226,1.413-13.861l.022-.031c3.437-5.435,20.654-32.649,22.1-34.735a11.888,11.888,0,0,1,9.933-5.495c5.911,0,10.75,4.489,11.5,10.675l.079.658V33.833l2.06,0c8.716,0,12.2,4.751,13.5,7.581a13.1,13.1,0,0,1-1.7,13.4" transform="translate(-10.806 -8.382)" fill="#80af12"/></g></g></g><g id="Gruppe_18" data-name="Gruppe 18" transform="translate(-732.482 -245.26)" opacity="0.7"><g id="Gruppe_17" data-name="Gruppe 17" transform="translate(0 0)"><g id="Gruppe_16" data-name="Gruppe 16" clip-path="url(#clip-path-6)"><path id="Pfad_6" data-name="Pfad 6" d="M69.961,40.661c-1.325-2.88-4.4-6.313-11.526-6.313l-4.236,0v-15.3l-.064-.526c-.621-5.077-4.551-8.763-9.346-8.763a9.761,9.761,0,0,0-8.142,4.562c-.913,1.316-8.961,13.965-22.078,34.7l-.044.068c-.964,1.389-3.9,6.333-1.254,11.654.893,1.8,3.741,5.974,10.873,5.974h4.509V82.373l.073.561a9.575,9.575,0,0,0,9.414,8.611c3.847,0,7.018-2.115,9.693-6.463,1.514-2.46,8.23-13.265,20.522-33.021l.132-.191a10.955,10.955,0,0,0,1.474-11.207M67.789,51.349l-.152.222C55.314,71.374,48.6,82.177,47.093,84.626c-2.5,4.071-5.433,6.049-8.954,6.049a8.717,8.717,0,0,1-8.553-7.854l-.066-.506V65.851H24.143c-6.646,0-9.275-3.842-10.1-5.493-2.434-4.894.3-9.482,1.19-10.774L15.3,49.5c13.12-20.738,21.158-33.373,22.065-34.68a8.923,8.923,0,0,1,7.429-4.188,8.709,8.709,0,0,1,8.483,8l.057.473V35.22l5.105,0c6.668,0,9.52,3.16,10.739,5.809a10.1,10.1,0,0,1-1.384,10.325" transform="translate(-12.192 -9.765)" fill="#80af12"/></g></g></g><g id="Gruppe_21" data-name="Gruppe 21" transform="translate(-729.429 -242.213)" opacity="0.9"><g id="Gruppe_20" data-name="Gruppe 20" transform="translate(0 0)"><g id="Gruppe_19" data-name="Gruppe 19" clip-path="url(#clip-path-7)"><path id="Pfad_7" data-name="Pfad 7" d="M65.529,40.272c-1.386-3.013-4.333-4.54-8.756-4.54l-7.288,0,0-18.174-.04-.328a6.556,6.556,0,0,0-6.318-6.084,6.8,6.8,0,0,0-5.64,3.25c-.887,1.279-8.921,13.907-22.038,34.641l-.084.123c-.722,1.043-2.931,4.738-1.03,8.56.64,1.29,2.715,4.284,8.144,4.284h7.557l0,18.517.046.352a6.56,6.56,0,0,0,6.393,5.955c1.723,0,4.333-.519,7.095-5.011,1.584-2.572,9.079-14.629,20.557-33.072l.249-.363a7.963,7.963,0,0,0,1.153-8.116m-1.851,7.6-.288.423C52.112,66.41,44.428,78.772,42.83,81.367c-2.535,4.122-4.841,4.6-6.355,4.6a5.7,5.7,0,0,1-5.532-5.2l-.04-.3,0-19.327H22.477c-4.942,0-6.8-2.66-7.365-3.8-1.692-3.4.31-6.736.964-7.68l.092-.136C29.295,28.778,37.32,16.163,38.2,14.9a5.95,5.95,0,0,1,4.925-2.876,5.7,5.7,0,0,1,5.457,5.321l.033.275,0,18.991,8.155,0c4.053,0,6.734,1.358,7.966,4.034a7.1,7.1,0,0,1-1.061,7.233" transform="translate(-13.579 -11.151)" fill="#80af12"/></g></g></g><path id="Pfad_8" data-name="Pfad 8" d="M60.357,39.817c-.282-.61-1.14-2.469-5.526-2.469l-10.844.007v-21.5l-.015-.125a3.064,3.064,0,0,0-2.788-2.962,3.358,3.358,0,0,0-2.718,1.721c-.854,1.232-8.873,13.837-22.005,34.59l-.117.176c-.442.636-1.8,2.869-.768,4.949.345.7,1.521,2.313,4.96,2.313H31.649V78.34l.018.143a3.048,3.048,0,0,0,2.867,2.854c.552,0,2.024,0,4.067-3.318C40.149,75.5,59.58,44.324,59.58,44.324a4.474,4.474,0,0,0,.777-4.507m-2.878,2.942S37.9,74.152,36.369,76.645c-1.023,1.664-1.576,2.073-1.789,2.073-.092,0-.31-.081-.31-.55V53.894H20.536c-1.725,0-2.454-.539-2.612-.856-.337-.678.227-1.793.572-2.289l.18-.273C31.6,30.06,39.8,17.165,40.62,15.981c.224-.323.394-.577.524-.555s.222.24.222.59V39.978l13.467-.009c1.01,0,2.762.123,3.142.946a2.031,2.031,0,0,1-.5,1.844" transform="translate(-741.066 -251.423)" fill="#80af12"/></g></svg>